<svg width="250" height="64" viewBox="0 0 250 64" fill="none" xmlns="http://www.w3.org/2000/svg">
<path d="M0.529855 31.0002L4.82168 9.54111H9.00754L13.2994 31.0002H9.66985L8.82209 26.0461H5.08661L4.21235 31.0002H0.529855ZM5.484 23.5558H8.3982L6.9411 14.5482L5.484 23.5558ZM15.5105 31.0002V9.54111H19.4049V18.5222H23.7762V9.54111H27.6971V31.0002H23.7762V21.3039H19.4049V31.0002H15.5105ZM29.8944 31.0002L34.1862 9.54111H38.3721L42.6639 31.0002H39.0344L38.1866 26.0461H34.4511L33.5769 31.0002H29.8944ZM34.8485 23.5558H37.7627L36.3056 14.5482L34.8485 23.5558ZM50.5974 31.2917C49.0255 31.2917 47.7892 30.9826 46.8884 30.3644C46.0054 29.7463 45.3872 28.9073 45.034 27.8476C44.6807 26.7702 44.5041 25.5339 44.5041 24.1386V16.4822C44.5041 15.0163 44.6807 13.7446 45.034 12.6673C45.3872 11.5899 46.0054 10.7598 46.8884 10.1769C47.7892 9.5941 49.0255 9.30268 50.5974 9.30268C52.081 9.30268 53.2379 9.55878 54.068 10.071C54.9157 10.5655 55.5163 11.2808 55.8695 12.2169C56.2227 13.153 56.3993 14.2392 56.3993 15.4755V17.277H52.6374V15.4225C52.6374 14.822 52.602 14.2745 52.5314 13.78C52.4784 13.2854 52.3106 12.8969 52.028 12.6143C51.7631 12.314 51.2951 12.1639 50.6239 12.1639C49.9528 12.1639 49.4582 12.3229 49.1403 12.6408C48.8401 12.941 48.6458 13.3561 48.5575 13.8859C48.4692 14.3981 48.425 14.981 48.425 15.6344V24.9599C48.425 25.737 48.4868 26.3817 48.6105 26.8939C48.7341 27.3884 48.9549 27.7681 49.2728 28.0331C49.6084 28.2803 50.0587 28.404 50.6239 28.404C51.2774 28.404 51.7366 28.2538 52.0015 27.9536C52.2841 27.6357 52.4608 27.2206 52.5314 26.7084C52.602 26.1962 52.6374 25.6222 52.6374 24.9864V23.0524H56.3993V24.7744C56.3993 26.0461 56.2316 27.1765 55.896 28.1655C55.5604 29.1369 54.9687 29.9052 54.121 30.4704C53.2909 31.0179 52.1163 31.2917 50.5974 31.2917ZM61.275 31.0002V12.4288H57.8575V9.54111H68.5606V12.4288H65.196V31.0002H61.275ZM69.4265 31.0002L73.7184 9.54111H77.9042L82.196 31.0002H78.5665L77.7188 26.0461H73.9833L73.109 31.0002H69.4265ZM74.3807 23.5558H77.2949L75.8378 14.5482L74.3807 23.5558ZM90.1296 31.2917C88.5577 31.2917 87.3214 30.9826 86.4206 30.3644C85.5375 29.7463 84.9193 28.9073 84.5661 27.8476C84.2129 26.7702 84.0363 25.5339 84.0363 24.1386V16.4822C84.0363 15.0163 84.2129 13.7446 84.5661 12.6673C84.9193 11.5899 85.5375 10.7598 86.4206 10.1769C87.3214 9.5941 88.5577 9.30268 90.1296 9.30268C91.6132 9.30268 92.77 9.55878 93.6001 10.071C94.4479 10.5655 95.0484 11.2808 95.4016 12.2169C95.7549 13.153 95.9315 14.2392 95.9315 15.4755V17.277H92.1695V15.4225C92.1695 14.822 92.1342 14.2745 92.0636 13.78C92.0106 13.2854 91.8428 12.8969 91.5602 12.6143C91.2953 12.314 90.8272 12.1639 90.1561 12.1639C89.4849 12.1639 88.9904 12.3229 88.6725 12.6408C88.3722 12.941 88.178 13.3561 88.0896 13.8859C88.0013 14.3981 87.9572 14.981 87.9572 15.6344V24.9599C87.9572 25.737 88.019 26.3817 88.1426 26.8939C88.2663 27.3884 88.487 27.7681 88.8049 28.0331C89.1405 28.2803 89.5909 28.404 90.1561 28.404C90.8096 28.404 91.2688 28.2538 91.5337 27.9536C91.8163 27.6357 91.9929 27.2206 92.0636 26.7084C92.1342 26.1962 92.1695 25.6222 92.1695 24.9864V23.0524H95.9315V24.7744C95.9315 26.0461 95.7637 27.1765 95.4281 28.1655C95.0926 29.1369 94.5009 29.9052 93.6531 30.4704C92.823 31.0179 91.6485 31.2917 90.1296 31.2917ZM98.7143 31.0002V9.54111H101.92V23.0789L107.801 9.54111H110.424V31.0002H107.192V17.2505L101.284 31.0002H98.7143ZM112.394 31.0002L116.686 21.4099C115.803 20.9507 115.087 20.2442 114.54 19.2904C113.992 18.319 113.719 17.1269 113.719 15.7139C113.719 14.301 113.975 13.1441 114.487 12.2434C114.999 11.325 115.767 10.645 116.792 10.2034C117.834 9.76189 119.15 9.54111 120.739 9.54111H125.693V31.0002H121.799V22.3106H120.554C120.518 22.3106 120.439 22.3106 120.315 22.3106C120.192 22.3106 120.112 22.3106 120.077 22.3106L116.659 31.0002H112.394ZM120.925 19.5554H121.799V12.2699H120.845C119.697 12.2699 118.832 12.5525 118.249 13.1176C117.666 13.6652 117.375 14.5306 117.375 15.7139C117.375 16.9326 117.631 17.8775 118.143 18.5486C118.673 19.2198 119.6 19.5554 120.925 19.5554ZM141.201 31.2917C139.629 31.2917 138.392 30.9826 137.492 30.3644C136.608 29.7463 135.99 28.9073 135.637 27.8476C135.284 26.7702 135.107 25.5339 135.107 24.1386V16.4822C135.107 15.0163 135.284 13.7446 135.637 12.6673C135.99 11.5899 136.608 10.7598 137.492 10.1769C138.392 9.5941 139.629 9.30268 141.201 9.30268C142.684 9.30268 143.841 9.55878 144.671 10.071C145.519 10.5655 146.119 11.2808 146.473 12.2169C146.826 13.153 147.002 14.2392 147.002 15.4755V17.277H143.241V15.4225C143.241 14.822 143.205 14.2745 143.135 13.78C143.082 13.2854 142.914 12.8969 142.631 12.6143C142.366 12.314 141.898 12.1639 141.227 12.1639C140.556 12.1639 140.061 12.3229 139.743 12.6408C139.443 12.941 139.249 13.3561 139.161 13.8859C139.072 14.3981 139.028 14.981 139.028 15.6344V24.9599C139.028 25.737 139.09 26.3817 139.214 26.8939C139.337 27.3884 139.558 27.7681 139.876 28.0331C140.212 28.2803 140.662 28.404 141.227 28.404C141.881 28.404 142.34 28.2538 142.605 27.9536C142.887 27.6357 143.064 27.2206 143.135 26.7084C143.205 26.1962 143.241 25.6222 143.241 24.9864V23.0524H147.002V24.7744C147.002 26.0461 146.835 27.1765 146.499 28.1655C146.164 29.1369 145.572 29.9052 144.724 30.4704C143.894 31.0179 142.719 31.2917 141.201 31.2917ZM149.52 34.7622V32.0335C150.35 32.0864 151.03 32.0688 151.56 31.9805C152.108 31.8922 152.523 31.7155 152.805 31.4506C153.088 31.1857 153.256 30.8325 153.309 30.3909C153.362 29.9317 153.326 29.3754 153.203 28.7219L148.673 9.54111H152.302L154.13 18.5222L155.11 24.7744L155.905 18.5222L157.495 9.54111H161.177L157.018 29.1193C156.823 30.0377 156.62 30.8236 156.408 31.4771C156.214 32.1483 155.958 32.7046 155.64 33.1462C155.34 33.6054 154.934 33.9586 154.421 34.2059C153.909 34.4531 153.256 34.6121 152.461 34.6827C151.666 34.771 150.686 34.7975 149.52 34.7622ZM160.647 35.2656V28.2185H161.416C161.769 28.0242 162.105 27.7681 162.423 27.4502C162.758 27.1146 163.058 26.6731 163.323 26.1256C163.588 25.5781 163.827 24.8804 164.039 24.0327C164.268 23.1672 164.462 22.1163 164.621 20.88C164.798 19.6437 164.93 18.1778 165.019 16.4822L165.496 9.54111H174.98V28.2185H177.232V35.2656H174.503L174.265 31.0002H163.694L163.429 35.2656H160.647ZM165.072 28.2185H171.271V12.3493H168.569L168.33 17.0915C168.26 18.7871 168.145 20.2265 167.986 21.4099C167.827 22.5755 167.642 23.5469 167.43 24.3241C167.218 25.0835 166.979 25.7017 166.714 26.1786C166.467 26.6554 166.202 27.044 165.92 27.3442C165.637 27.6445 165.354 27.9359 165.072 28.2185ZM178.295 31.0002L182.587 9.54111H186.773L191.065 31.0002H187.435L186.587 26.0461H182.852L181.978 31.0002H178.295ZM183.249 23.5558H186.164L184.706 14.5482L183.249 23.5558ZM193.276 31.0002V9.54111H197.17V18.5486H197.965L201.436 9.54111H205.33L201.25 19.6613L205.648 31.0002H201.674L197.965 21.1184H197.17V31.0002H193.276ZM213.384 31.2917C211.865 31.2917 210.655 31.0091 209.755 30.4439C208.854 29.8787 208.209 29.0663 207.821 28.0066C207.432 26.9469 207.238 25.6929 207.238 24.2446V16.2173C207.238 14.769 207.432 13.5327 207.821 12.5083C208.209 11.4663 208.854 10.6715 209.755 10.124C210.655 9.57644 211.865 9.30268 213.384 9.30268C214.938 9.30268 216.157 9.57644 217.04 10.124C217.941 10.6715 218.586 11.4663 218.974 12.5083C219.38 13.5327 219.584 14.769 219.584 16.2173V24.2711C219.584 25.7017 219.38 26.9469 218.974 28.0066C218.586 29.0486 217.941 29.8611 217.04 30.4439C216.157 31.0091 214.938 31.2917 213.384 31.2917ZM213.384 28.404C214.038 28.404 214.515 28.2627 214.815 27.9801C215.133 27.6975 215.345 27.3089 215.451 26.8144C215.557 26.3199 215.61 25.7812 215.61 25.1983V15.3165C215.61 14.716 215.557 14.1773 215.451 13.7005C215.345 13.2236 215.133 12.8527 214.815 12.5878C214.515 12.3052 214.038 12.1639 213.384 12.1639C212.766 12.1639 212.298 12.3052 211.98 12.5878C211.662 12.8527 211.45 13.2236 211.344 13.7005C211.238 14.1773 211.185 14.716 211.185 15.3165V25.1983C211.185 25.7812 211.229 26.3199 211.318 26.8144C211.424 27.3089 211.636 27.6975 211.954 27.9801C212.272 28.2627 212.748 28.404 213.384 28.404ZM222.484 31.0002V9.54111H227.756C228.71 9.54111 229.566 9.62942 230.326 9.80604C231.103 9.98266 231.765 10.2829 232.313 10.7068C232.878 11.113 233.311 11.6694 233.611 12.3758C233.911 13.0823 234.061 13.9742 234.061 15.0516C234.061 15.917 233.938 16.6588 233.69 17.277C233.461 17.8952 233.116 18.3897 232.657 18.7606C232.198 19.1138 231.624 19.3523 230.935 19.4759C231.783 19.6172 232.48 19.9174 233.028 20.3766C233.593 20.8182 234.008 21.401 234.273 22.1252C234.556 22.8493 234.697 23.7236 234.697 24.748C234.697 25.7723 234.565 26.6819 234.3 27.4767C234.052 28.2538 233.673 28.9073 233.16 29.4372C232.666 29.9494 232.039 30.3379 231.279 30.6029C230.538 30.8678 229.663 31.0002 228.657 31.0002H222.484ZM226.405 28.245H227.888C229.072 28.245 229.875 27.9624 230.299 27.3972C230.723 26.8144 230.935 25.9225 230.935 24.7215C230.935 23.856 230.829 23.1584 230.617 22.6285C230.423 22.081 230.087 21.6748 229.61 21.4099C229.151 21.1449 228.533 21.0125 227.756 21.0125H226.405V28.245ZM226.405 18.3102H227.729C228.507 18.3102 229.107 18.1954 229.531 17.9658C229.955 17.7362 230.246 17.383 230.405 16.9061C230.582 16.4292 230.67 15.8287 230.67 15.1046C230.67 14.3451 230.538 13.7623 230.273 13.3561C230.025 12.9322 229.646 12.6496 229.134 12.5083C228.621 12.3493 227.968 12.2699 227.173 12.2699H226.405V18.3102ZM236.145 31.0002L240.436 9.54111H244.622L248.914 31.0002H245.285L244.437 26.0461H240.701L239.827 31.0002H236.145ZM241.099 23.5558H244.013L242.556 14.5482L241.099 23.5558Z" fill="#333399"/>
<path d="M81.3446 58.7394V44.8307H93.0478V58.7394H91.5973V45.7049L91.9748 46.1023H82.4176L82.7951 45.7049V58.7394H81.3446ZM100.781 58.8387C99.7477 58.8387 98.8205 58.6135 97.9992 58.1632C97.1912 57.6995 96.5553 57.0703 96.0917 56.2756C95.6281 55.4675 95.3963 54.5469 95.3963 53.5137C95.3963 52.4672 95.6281 51.5466 96.0917 50.7518C96.5553 49.957 97.1912 49.3345 97.9992 48.8841C98.8205 48.4337 99.7477 48.2085 100.781 48.2085C101.668 48.2085 102.47 48.3807 103.185 48.7251C103.9 49.0695 104.463 49.5861 104.874 50.2749L103.821 50.9902C103.463 50.4604 103.02 50.0696 102.49 49.8179C101.96 49.5663 101.384 49.4404 100.761 49.4404C100.019 49.4404 99.3503 49.6126 98.7542 49.957C98.1581 50.2882 97.6879 50.7584 97.3435 51.3678C96.9991 51.9771 96.8269 52.6924 96.8269 53.5137C96.8269 54.335 96.9991 55.0503 97.3435 55.6596C97.6879 56.2689 98.1581 56.7458 98.7542 57.0902C99.3503 57.4214 100.019 57.5869 100.761 57.5869C101.384 57.5869 101.96 57.4611 102.49 57.2094C103.02 56.9577 103.463 56.5736 103.821 56.057L104.874 56.7723C104.463 57.4479 103.9 57.9645 103.185 58.3221C102.47 58.6665 101.668 58.8387 100.781 58.8387ZM106.612 58.7394V48.3079H108.023V56.5935L114.997 48.3079H116.249V58.7394H114.838V50.4339L107.884 58.7394H106.612ZM117.59 58.7394L122.001 53.0169L121.981 53.7124L117.788 48.3079H119.378L122.815 52.7785L122.219 52.7586L125.657 48.3079H127.207L122.974 53.772L122.994 53.0169L127.445 58.7394H125.836L122.199 53.9707L122.756 54.0502L119.179 58.7394H117.59ZM132.687 58.8387C131.68 58.8387 130.773 58.6135 129.965 58.1632C129.17 57.6995 128.541 57.0703 128.077 56.2756C127.613 55.4675 127.382 54.5469 127.382 53.5137C127.382 52.4672 127.613 51.5466 128.077 50.7518C128.541 49.957 129.17 49.3345 129.965 48.8841C130.759 48.4337 131.667 48.2085 132.687 48.2085C133.72 48.2085 134.634 48.4337 135.429 48.8841C136.237 49.3345 136.866 49.957 137.316 50.7518C137.78 51.5466 138.012 52.4672 138.012 53.5137C138.012 54.5469 137.78 55.4675 137.316 56.2756C136.866 57.0703 136.237 57.6995 135.429 58.1632C134.621 58.6135 133.707 58.8387 132.687 58.8387ZM132.687 57.5869C133.442 57.5869 134.111 57.4214 134.694 57.0902C135.276 56.7458 135.733 56.2689 136.065 55.6596C136.409 55.037 136.581 54.3217 136.581 53.5137C136.581 52.6924 136.409 51.9771 136.065 51.3678C135.733 50.7584 135.276 50.2882 134.694 49.957C134.111 49.6126 133.448 49.4404 132.707 49.4404C131.965 49.4404 131.303 49.6126 130.72 49.957C130.137 50.2882 129.673 50.7584 129.329 51.3678C128.984 51.9771 128.812 52.6924 128.812 53.5137C128.812 54.3217 128.984 55.037 129.329 55.6596C129.673 56.2689 130.137 56.7458 130.72 57.0902C131.303 57.4214 131.958 57.5869 132.687 57.5869ZM138.068 58.7195L138.167 57.5075C138.26 57.5207 138.346 57.5406 138.425 57.5671C138.518 57.5803 138.598 57.5869 138.664 57.5869C139.088 57.5869 139.425 57.428 139.677 57.1101C139.942 56.7922 140.141 56.3683 140.273 55.8384C140.406 55.3086 140.498 54.7125 140.551 54.0502C140.604 53.3746 140.651 52.699 140.69 52.0235L140.869 48.3079H148.519V58.7394H147.108V49.1225L147.466 49.5398H141.783L142.121 49.1026L141.962 52.1228C141.922 53.0236 141.85 53.8846 141.744 54.7059C141.651 55.5271 141.499 56.2491 141.287 56.8716C141.088 57.4942 140.81 57.9843 140.452 58.342C140.094 58.6864 139.637 58.8586 139.081 58.8586C138.922 58.8586 138.757 58.8454 138.584 58.8189C138.425 58.7924 138.253 58.7592 138.068 58.7195ZM155.828 58.8387C154.821 58.8387 153.914 58.6135 153.106 58.1632C152.311 57.6995 151.682 57.0703 151.218 56.2756C150.754 55.4675 150.523 54.5469 150.523 53.5137C150.523 52.4672 150.754 51.5466 151.218 50.7518C151.682 49.957 152.311 49.3345 153.106 48.8841C153.9 48.4337 154.808 48.2085 155.828 48.2085C156.861 48.2085 157.775 48.4337 158.57 48.8841C159.378 49.3345 160.007 49.957 160.457 50.7518C160.921 51.5466 161.153 52.4672 161.153 53.5137C161.153 54.5469 160.921 55.4675 160.457 56.2756C160.007 57.0703 159.378 57.6995 158.57 58.1632C157.762 58.6135 156.848 58.8387 155.828 58.8387ZM155.828 57.5869C156.583 57.5869 157.252 57.4214 157.835 57.0902C158.418 56.7458 158.875 56.2689 159.206 55.6596C159.55 55.037 159.722 54.3217 159.722 53.5137C159.722 52.6924 159.55 51.9771 159.206 51.3678C158.875 50.7584 158.418 50.2882 157.835 49.957C157.252 49.6126 156.59 49.4404 155.848 49.4404C155.106 49.4404 154.444 49.6126 153.861 49.957C153.278 50.2882 152.814 50.7584 152.47 51.3678C152.125 51.9771 151.953 52.6924 151.953 53.5137C151.953 54.3217 152.125 55.037 152.47 55.6596C152.814 56.2689 153.278 56.7458 153.861 57.0902C154.444 57.4214 155.099 57.5869 155.828 57.5869ZM163.174 58.7394V48.3079H170.566V49.5398H164.228L164.585 49.1821V58.7394H163.174Z" fill="#333399"/>
</svg>
