<svg width="300" height="283" viewBox="0 0 300 283" fill="none" xmlns="http://www.w3.org/2000/svg">
<path d="M294.315 99.3608C285.863 69.008 266.115 41.6314 239.744 24.45C211.799 6.24628 175.267 0.776634 142.585 0.0439405C96.9479 -1.00114 39.139 16.5267 16.6868 60.0453C14.8181 63.6633 20.3218 66.7701 22.1905 63.1521C38.0996 32.3108 76.0974 14.499 108.881 8.66018C144.147 2.38969 182.707 7.31975 216.076 19.7642C250.916 32.7539 275.106 62.5728 286.994 97.0718C300.228 135.456 292.901 173.681 271.778 207.396C228.168 276.985 121.138 299.573 56.0477 246.831C26.2288 222.669 6.7812 190.345 6.40634 151.683C6.18482 128.896 10.6264 103.45 22.003 83.4574C25.5302 77.2664 30.2671 71.9615 35.6118 67.1734C35.6913 65.9295 35.7822 64.697 35.8674 63.4702C35.2483 62.6807 34.7201 61.8287 34.4475 60.7723C34.4191 60.653 34.4247 60.5621 34.3963 60.4372C31.1475 63.1691 28.0009 66.0374 25.0247 69.1216C12.0123 82.5883 6.88344 101.269 3.25973 119.109C-3.94224 154.551 0.334638 187.687 20.6569 217.631C38.0541 243.27 64.8855 267.13 95.2383 275.463C131.703 285.47 169.774 284.624 204.279 269.169C219.893 262.183 236.818 255.322 249.939 244.042C266.03 230.195 278.116 210.639 287.874 192.038C302.749 163.684 302.738 129.594 294.315 99.3608Z" fill="white"/>
<path d="M94.8868 175.39C95.4718 181.922 95.5741 192.884 102.413 195.826C102.702 196.201 103.009 196.547 103.361 196.814C110.165 201.937 119.651 193.951 125.376 190.515C141.262 181.007 196.862 144.867 205.115 132.144C205.972 130.815 205.671 129.56 204.853 128.685C204.796 127.776 204.393 126.879 203.388 126.254C194.175 120.62 153.008 101.848 141.535 97.5994C135.605 95.39 109.768 84.3087 106.252 84.2235C92.7739 75.5618 94.7732 115.604 94.705 119.166C94.3359 137.818 93.2283 156.783 94.8868 175.39ZM113.198 136.671C112.699 136.892 112.278 137.25 111.966 137.704C111.943 136.006 111.915 134.319 111.903 132.644C112.449 132.956 113.022 133.234 113.596 133.518C113.477 134.552 113.335 135.609 113.198 136.671ZM114.374 163.15C114.732 161.741 115.232 160.321 115.834 158.901C124.825 156.794 133.373 152.392 142.154 149.558C146.437 148.382 150.725 147.207 154.985 145.963C141.717 152.182 128.165 157.726 114.374 163.15ZM133.799 140.811C132.777 141.277 131.743 141.731 130.738 142.231C129.84 141.675 128.926 141.243 127.994 140.845C129.925 140.789 131.862 140.766 133.799 140.811ZM131.078 132.422C131.209 132.343 131.351 132.28 131.499 132.212C135.145 132.99 138.792 133.524 142.54 133.575C145.147 133.888 147.754 134.217 150.367 134.518C150.117 134.609 149.867 134.683 149.612 134.774C144.102 134.2 137.451 133.575 131.078 132.422ZM158.148 125.726C153.826 124.192 149.498 122.608 145.136 120.875C137.951 118.024 130.794 115.996 123.291 114.23C120.946 113.685 119.015 112.753 117.316 111.589C131.459 113.81 145.068 119.279 158.148 125.726ZM124.195 120.909C119.935 120.5 115.624 120.302 111.256 120.313C111.108 118.626 110.938 116.95 110.773 115.264C115.022 118.223 119.446 119.711 124.195 120.909Z" fill="white"/>
</svg>
