<svg width="60" height="60" viewBox="0 0 60 60" fill="none" xmlns="http://www.w3.org/2000/svg">
<path d="M0 60C0.834745 57.5148 1.6211 55.1856 2.40745 52.8565C3.19381 50.5513 3.89548 48.2102 4.79071 45.941C5.25043 44.7885 5.10525 43.9241 4.52456 42.8435C1.35495 37.0086 0.411323 30.7535 1.51222 24.2463C2.44375 18.7356 4.80281 13.8612 8.6136 9.71914C14.8923 2.91177 22.7317 -0.353843 31.9986 0.0303466C38.7854 0.306483 44.7859 2.7677 49.9032 7.2219C54.6698 11.364 57.7789 16.5145 59.2185 22.6375C60.3799 27.572 60.2468 32.4824 58.8193 37.3448C57.0046 43.5038 53.5326 48.5824 48.3668 52.4483C41.1929 57.8269 33.1478 59.4958 24.377 57.8029C21.7397 57.2987 19.2233 56.3622 16.8522 55.0896C16.465 54.8855 16.1384 54.8374 15.715 54.9815C11.2146 56.4222 6.70216 57.8509 2.20179 59.2796C1.52432 59.4958 0.834745 59.7239 0 60ZM7.65788 52.4723C7.89983 52.4123 8.00871 52.3882 8.11759 52.3522C10.9364 51.4638 13.7551 50.5633 16.586 49.6989C16.8522 49.6149 17.2151 49.6869 17.4692 49.807C18.691 50.4073 19.8645 51.1276 21.1227 51.6559C26.3005 53.8289 31.6356 54.1771 37.0312 52.6884C43.4672 50.8995 48.4031 47.0936 51.7784 41.3428C54.6698 36.4203 55.6618 31.1017 54.7665 25.5069C53.6293 18.3874 49.9516 12.7927 43.8665 8.81869C38.5918 5.38499 32.7849 4.22042 26.5909 5.1929C21.2558 6.03332 16.6949 8.44651 12.9325 12.3124C9.7024 15.6261 7.5369 19.54 6.59328 24.0422C5.25043 30.4894 6.24244 36.5884 9.84757 42.1472C10.5734 43.2637 10.5492 44.1161 10.1137 45.2567C9.23059 47.5979 8.49262 49.987 7.65788 52.4723Z" fill="#333399"/>
<path d="M45.4428 37.6551C45.4068 39.9722 44.3143 41.7371 42.1052 42.8416C39.9321 43.9222 37.723 44.1983 35.4539 43.3099C33.4129 42.5055 31.3478 41.7251 29.3789 40.7526C26.7856 39.468 24.6605 37.547 22.7156 35.422C20.5665 33.0688 18.7416 30.4515 17.2409 27.6541C16.1723 25.6732 15.524 23.5721 15.7521 21.267C15.9923 18.8178 17.1328 16.8608 19.0538 15.3841C19.438 15.0959 20.0142 14.9639 20.5065 14.9158C21.1428 14.8678 21.7791 14.9639 22.4154 15.0119C22.9437 15.0599 23.2318 15.4321 23.4119 15.8643C23.8802 17.0169 24.3004 18.1694 24.7446 19.334C25.0447 20.1144 25.2728 20.9308 25.633 21.6872C26.0772 22.6236 25.8011 23.404 25.2248 24.1244C24.7326 24.7367 24.2163 25.325 23.652 25.8532C23.1838 26.2975 23.0998 26.7537 23.4119 27.294C24.7926 29.7552 26.4734 31.9643 28.6945 33.7531C30.1593 34.9297 31.7801 35.8062 33.4609 36.6226C33.9531 36.8627 34.4334 36.8267 34.8176 36.3825C35.646 35.434 36.4864 34.4975 37.3028 33.537C37.8311 32.9247 38.0952 32.8047 38.8035 33.1649C40.8566 34.1974 42.8856 35.2659 44.9266 36.3344C45.4068 36.5986 45.5269 37.0308 45.4428 37.6551Z" fill="#333399"/>
</svg>
